<?xml version="1.0" encoding="UTF-8"?>
<svg xmlns="http://www.w3.org/2000/svg" viewBox="0 0 400 400">
  <!-- Hexagon background -->
  <path d="M200 40L320 110V250L200 320L80 250V110L200 40Z" fill="none" stroke="#1b3a5d" stroke-width="8"/>
  
  <!-- House/Roof shape -->
  <path d="M200 70L250 100L200 130L150 100L200 70Z" fill="none" stroke="#1b3a5d" stroke-width="6"/>
  
  <!-- Headset -->
  <circle cx="200" cy="200" r="50" fill="none" stroke="#1b3a5d" stroke-width="6"/>
  <rect x="165" y="190" width="70" height="60" rx="10" fill="none" stroke="#1b3a5d" stroke-width="6"/>
  
  <!-- Headphones -->
  <rect x="150" y="180" width="15" height="40" rx="5" fill="#1b3a5d"/>
  <rect x="235" y="180" width="15" height="40" rx="5" fill="#1b3a5d"/>
  
  <!-- Connection nodes -->
  <circle cx="130" cy="150" r="8" fill="#3498db"/>
  <circle cx="270" cy="150" r="8" fill="#3498db"/>
  <circle cx="130" cy="250" r="8" fill="#3498db"/>
  <circle cx="270" cy="250" r="8" fill="#3498db"/>
  
  <!-- Connection lines -->
  <line x1="130" y1="150" x2="150" y2="170" stroke="#3498db" stroke-width="2"/>
  <line x1="270" y1="150" x2="250" y2="170" stroke="#3498db" stroke-width="2"/>
  <line x1="130" y1="250" x2="150" y2="230" stroke="#3498db" stroke-width="2"/>
  <line x1="270" y1="250" x2="250" y2="230" stroke="#3498db" stroke-width="2"/>
</svg> 